<svg width="180" height="36" viewBox="0 0 180 36" fill="none" xmlns="http://www.w3.org/2000/svg">
<line x1="28.7666" y1="2.26953" x2="179.767" y2="2.26953" stroke="#5183D3" stroke-width="3"/>
<line x1="2.7666" y1="33.2695" x2="153.767" y2="33.2695" stroke="#5183D3" stroke-width="3"/>
<line x1="152.617" y1="33.8056" x2="178.617" y2="2.80561" stroke="#5183D3" stroke-width="3"/>
<path d="M2 34.127L29.2666 2.26953" stroke="#5183D3" stroke-width="3"/>
<path d="M63.0755 21.98C63.0755 21.82 63.1355 21.66 63.2555 21.5C63.3888 21.3267 63.5288 21.24 63.6755 21.24C63.7821 21.24 63.9155 21.3267 64.0755 21.5L64.6355 22.08C64.8355 22.2933 65.1488 22.4867 65.5755 22.66C66.0155 22.82 66.5221 22.9 67.0955 22.9C68.0421 22.9 68.7755 22.6667 69.2955 22.2C69.8155 21.72 70.0755 21.0333 70.0755 20.14C70.0755 19.54 69.9488 19.0333 69.6955 18.62C69.4555 18.1933 69.1421 17.8667 68.7555 17.64C68.3821 17.4 67.9555 17.1867 67.4755 17L66.0355 16.44C65.5555 16.2533 65.1221 16.0333 64.7355 15.78C64.3621 15.5133 64.0488 15.1467 63.7955 14.68C63.5555 14.2 63.4355 13.6333 63.4355 12.98C63.4355 12.2867 63.5621 11.6933 63.8155 11.2C64.0821 10.6933 64.4355 10.3133 64.8755 10.06C65.3155 9.80667 65.7621 9.62667 66.2155 9.52C66.6821 9.4 67.1688 9.34 67.6755 9.34C68.4888 9.34 69.2488 9.46 69.9555 9.7C70.6755 9.92667 71.0355 10.2133 71.0355 10.56C71.0355 10.72 70.9755 10.8867 70.8555 11.06C70.7488 11.22 70.6155 11.3 70.4555 11.3C70.3755 11.3 70.2221 11.24 69.9955 11.12C69.7688 10.9867 69.4488 10.86 69.0355 10.74C68.6355 10.6067 68.1755 10.54 67.6555 10.54C66.8155 10.54 66.1221 10.72 65.5755 11.08C65.0288 11.44 64.7555 12.0333 64.7555 12.86C64.7555 13.4333 64.9155 13.9133 65.2355 14.3C65.5688 14.6867 65.9821 14.9667 66.4755 15.14C66.9688 15.3133 67.5021 15.52 68.0755 15.76C68.6488 16 69.1821 16.26 69.6755 16.54C70.1688 16.8067 70.5755 17.24 70.8955 17.84C71.2288 18.4267 71.3955 19.1533 71.3955 20.02C71.3955 21.3933 71.0155 22.4267 70.2555 23.12C69.4955 23.8 68.4688 24.14 67.1755 24.14C66.0155 24.14 65.0421 23.8933 64.2555 23.4C63.4688 22.8933 63.0755 22.42 63.0755 21.98ZM73.4983 11.5C73.3249 11.3267 73.2383 11.1267 73.2383 10.9C73.2383 10.6733 73.3249 10.48 73.4983 10.32C73.6716 10.16 73.8849 10.08 74.1383 10.08C74.3783 10.08 74.5783 10.16 74.7383 10.32C74.9116 10.48 74.9983 10.6733 74.9983 10.9C74.9983 11.1267 74.9116 11.3267 74.7383 11.5C74.5783 11.66 74.3783 11.74 74.1383 11.74C73.8849 11.74 73.6716 11.66 73.4983 11.5ZM73.4983 23.48V15.02C73.4983 14.8867 73.5583 14.7733 73.6783 14.68C73.7983 14.5867 73.9516 14.54 74.1383 14.54C74.3249 14.54 74.4783 14.5867 74.5983 14.68C74.7316 14.7733 74.7983 14.8867 74.7983 15.02V23.48C74.7983 23.6133 74.7316 23.7333 74.5983 23.84C74.4649 23.9467 74.3116 24 74.1383 24C73.9649 24 73.8116 23.9467 73.6783 23.84C73.5583 23.7333 73.4983 23.6133 73.4983 23.48ZM76.5664 25.98C76.5664 24.98 77.1331 24.2533 78.2664 23.8C77.5331 23.5467 77.1664 23.0867 77.1664 22.42C77.1664 21.82 77.4997 21.34 78.1664 20.98C77.4331 20.3667 77.0664 19.5267 77.0664 18.46V17.7C77.0664 16.7267 77.3797 15.94 78.0064 15.34C78.6464 14.7267 79.4797 14.42 80.5064 14.42C81.4397 14.42 82.2197 14.7 82.8464 15.26C83.0464 14.8733 83.2731 14.5667 83.5264 14.34C83.7797 14.1133 84.0264 14 84.2664 14C84.4531 14 84.5997 14.0533 84.7064 14.16C84.8131 14.2667 84.8664 14.3867 84.8664 14.52C84.8664 14.76 84.7531 14.9067 84.5264 14.96C84.0597 15.0533 83.6864 15.34 83.4064 15.82C83.7797 16.3133 83.9664 16.94 83.9664 17.7V18.46C83.9664 19.42 83.6397 20.2133 82.9864 20.84C82.3331 21.4667 81.4997 21.78 80.4864 21.78C79.9397 21.78 79.4264 21.6667 78.9464 21.44C78.5331 21.6667 78.3264 21.9267 78.3264 22.22C78.3264 22.5 78.4797 22.7133 78.7864 22.86C79.0931 23.0067 79.4731 23.1 79.9264 23.14C80.3931 23.18 80.8931 23.2467 81.4264 23.34C81.9731 23.42 82.4731 23.5267 82.9264 23.66C83.3931 23.7933 83.7797 24.04 84.0864 24.4C84.3931 24.76 84.5464 25.2267 84.5464 25.8C84.5464 26.7067 84.1864 27.4067 83.4664 27.9C82.7464 28.3933 81.7997 28.64 80.6264 28.64C79.4264 28.64 78.4464 28.4 77.6864 27.92C76.9397 27.44 76.5664 26.7933 76.5664 25.98ZM77.8264 25.86C77.8264 26.4067 78.0731 26.8467 78.5664 27.18C79.0731 27.5133 79.7531 27.68 80.6064 27.68C81.4464 27.68 82.0997 27.5133 82.5664 27.18C83.0464 26.8467 83.2864 26.4 83.2864 25.84C83.2864 25.5733 83.2197 25.34 83.0864 25.14C82.9531 24.94 82.7931 24.7867 82.6064 24.68C82.4331 24.5733 82.1997 24.48 81.9064 24.4C81.6131 24.32 81.3531 24.2667 81.1264 24.24C80.9131 24.2133 80.6397 24.1867 80.3064 24.16L79.6064 24.08C78.4197 24.4533 77.8264 25.0467 77.8264 25.86ZM78.3264 18.44C78.3264 19.1333 78.5197 19.7 78.9064 20.14C79.3064 20.58 79.8464 20.8 80.5264 20.8C81.1797 20.8 81.6997 20.58 82.0864 20.14C82.4864 19.7 82.6864 19.14 82.6864 18.46V17.7C82.6864 17.0333 82.4864 16.4867 82.0864 16.06C81.6997 15.62 81.1731 15.4 80.5064 15.4C79.8397 15.4 79.3064 15.62 78.9064 16.06C78.5197 16.4867 78.3264 17.0333 78.3264 17.7V18.44ZM86.3694 23.48V15.02C86.3694 14.8733 86.4294 14.76 86.5494 14.68C86.6694 14.5867 86.8227 14.54 87.0094 14.54C87.1694 14.54 87.3094 14.5867 87.4294 14.68C87.5494 14.7733 87.6094 14.8867 87.6094 15.02V15.94C87.836 15.5133 88.1827 15.1533 88.6494 14.86C89.116 14.5667 89.6627 14.42 90.2894 14.42C91.2494 14.42 92.0827 14.7867 92.7894 15.52C93.496 16.2533 93.8494 17.1333 93.8494 18.16V23.48C93.8494 23.64 93.7827 23.7667 93.6494 23.86C93.516 23.9533 93.3627 24 93.1894 24C93.0294 24 92.8827 23.9533 92.7494 23.86C92.616 23.7667 92.5494 23.64 92.5494 23.48V18.16C92.5494 17.5067 92.3027 16.92 91.8094 16.4C91.316 15.88 90.7294 15.62 90.0494 15.62C89.4227 15.62 88.8694 15.8533 88.3894 16.32C87.9094 16.7867 87.6694 17.4 87.6694 18.16V23.48C87.6694 23.6133 87.6027 23.7333 87.4694 23.84C87.336 23.9467 87.1827 24 87.0094 24C86.8227 24 86.6694 23.9467 86.5494 23.84C86.4294 23.7333 86.3694 23.6133 86.3694 23.48ZM100.195 20.38V15.04C100.195 14.92 100.255 14.8067 100.375 14.7C100.508 14.5933 100.668 14.54 100.855 14.54C101.015 14.54 101.162 14.5933 101.295 14.7C101.428 14.8067 101.495 14.92 101.495 15.04V20.38C101.495 21.0467 101.742 21.64 102.235 22.16C102.728 22.68 103.315 22.94 103.995 22.94C104.675 22.94 105.262 22.68 105.755 22.16C106.248 21.64 106.495 21.0467 106.495 20.38V15.02C106.495 14.8867 106.562 14.7733 106.695 14.68C106.828 14.5867 106.982 14.54 107.155 14.54C107.328 14.54 107.475 14.5867 107.595 14.68C107.728 14.7733 107.795 14.8867 107.795 15.02V20.38C107.795 21.38 107.415 22.26 106.655 23.02C105.908 23.7667 105.022 24.14 103.995 24.14C102.955 24.14 102.062 23.7667 101.315 23.02C100.568 22.26 100.195 21.38 100.195 20.38ZM110.217 28.14V15.02C110.217 14.8867 110.277 14.7733 110.397 14.68C110.517 14.5867 110.67 14.54 110.857 14.54C111.03 14.54 111.177 14.5867 111.297 14.68C111.417 14.7733 111.477 14.8867 111.477 15.02V15.94C111.717 15.5133 112.07 15.1533 112.537 14.86C113.004 14.5667 113.544 14.42 114.157 14.42C115.144 14.42 115.99 14.7867 116.697 15.52C117.404 16.2533 117.757 17.1333 117.757 18.16V20.34C117.757 21.34 117.397 22.2267 116.677 23C115.97 23.76 115.15 24.14 114.217 24.14C113.63 24.14 113.09 23.9933 112.597 23.7C112.104 23.3933 111.744 23.0267 111.517 22.6V28.14C111.517 28.26 111.45 28.3733 111.317 28.48C111.197 28.5867 111.044 28.64 110.857 28.64C110.684 28.64 110.53 28.5867 110.397 28.48C110.277 28.3733 110.217 28.26 110.217 28.14ZM111.517 20.96C111.517 21.32 111.764 21.74 112.257 22.22C112.764 22.7 113.337 22.94 113.977 22.94C114.63 22.94 115.204 22.6733 115.697 22.14C116.204 21.6067 116.457 21.0067 116.457 20.34V18.16C116.457 17.5067 116.204 16.92 115.697 16.4C115.204 15.88 114.617 15.62 113.937 15.62C113.297 15.62 112.73 15.8533 112.237 16.32C111.757 16.7867 111.517 17.4 111.517 18.16V20.96Z" fill="white"/>
</svg>
